<?xml version="1.0" encoding="UTF-8" standalone="no"?><!DOCTYPE svg PUBLIC "-//W3C//DTD SVG 1.1//EN" "http://www.w3.org/Graphics/SVG/1.1/DTD/svg11.dtd"><svg width="100%" height="100%" viewBox="0 0 262 311" version="1.1" xmlns="http://www.w3.org/2000/svg" xmlns:xlink="http://www.w3.org/1999/xlink" xml:space="preserve" xmlns:serif="http://www.serif.com/" style="fill-rule:evenodd;clip-rule:evenodd;stroke-linecap:round;stroke-linejoin:round;stroke-miterlimit:1.5;"><g><circle cx="130.901" cy="43.841" r="38.841" style="fill:none;stroke:#231f20;stroke-width:10px;"/><path d="M90.618,124.528l-71.669,0c-7.699,0 -13.949,-6.25 -13.949,-13.949c-0,-7.699 6.25,-13.949 13.949,-13.949l223.664,0c7.699,0 13.949,6.25 13.949,13.949c0,7.699 -6.25,13.949 -13.949,13.949l-72.15,0l0,72.4c0.302,0.779 12.674,91.492 12.674,91.492c1.507,7.685 -3.509,15.148 -11.194,16.655c-7.685,1.507 -15.147,-3.508 -16.655,-11.193l-24.052,-88.717l-24.052,88.717c-1.507,7.685 -8.97,12.7 -16.655,11.193c-7.685,-1.507 -12.701,-8.97 -11.193,-16.655l11.282,-87.894l-0,-75.998Z" style="fill:none;stroke:#231f20;stroke-width:10px;"/></g></svg>