<?xml version="1.0" encoding="UTF-8" standalone="no"?><!DOCTYPE svg PUBLIC "-//W3C//DTD SVG 1.1//EN" "http://www.w3.org/Graphics/SVG/1.1/DTD/svg11.dtd"><svg width="100%" height="100%" viewBox="0 0 32 31" version="1.1" xmlns="http://www.w3.org/2000/svg" xmlns:xlink="http://www.w3.org/1999/xlink" xml:space="preserve" xmlns:serif="http://www.serif.com/" style="fill-rule:evenodd;clip-rule:evenodd;stroke-linejoin:round;stroke-miterlimit:2;"><path d="M31.25,15.625c0,7 -4.594,12.922 -10.938,14.906l0.001,-3.968c-0,-1.336 -0.563,-2.532 -1.454,-3.391c4.094,-0.742 6.141,-3.125 6.141,-7.547c0,-1.914 -0.391,-3.43 -1.156,-4.609c0.343,-1.336 0.547,-3.235 -0.407,-4.766c-1.843,0 -3.132,1.086 -3.89,1.977c-1.133,-0.274 -2.438,-0.414 -3.922,-0.414c-1.406,-0 -2.703,0.156 -3.859,0.476c-0.75,-0.898 -2.063,-2.039 -3.954,-2.039c-1.109,1.781 -0.656,3.703 -0.234,4.781c-0.844,1.18 -1.328,2.696 -1.328,4.594c0,4.422 2.047,6.805 6.141,7.547c-0.524,0.508 -0.93,1.125 -1.18,1.828l-1.836,0c-1.125,0 -1.562,-0.5 -2.164,-1.313c-0.602,-0.812 -1.25,-1.359 -2.023,-1.585c-0.415,-0.047 -0.696,0.289 -0.329,0.585c1.227,0.883 1.313,2.329 1.805,3.274c0.445,0.851 1.367,1.383 2.406,1.383l1.868,-0l-0,3.187c-6.344,-1.984 -10.938,-7.906 -10.938,-14.906c0,-8.633 6.992,-15.625 15.625,-15.625c8.633,-0 15.625,6.992 15.625,15.625Z" style="fill-rule:nonzero;"/></svg>