<?xml version="1.0" encoding="UTF-8" standalone="no"?><!DOCTYPE svg PUBLIC "-//W3C//DTD SVG 1.1//EN" "http://www.w3.org/Graphics/SVG/1.1/DTD/svg11.dtd"><svg width="100%" height="100%" viewBox="0 0 29 29" version="1.1" xmlns="http://www.w3.org/2000/svg" xmlns:xlink="http://www.w3.org/1999/xlink" xml:space="preserve" xmlns:serif="http://www.serif.com/" style="fill-rule:evenodd;clip-rule:evenodd;stroke-linejoin:round;stroke-miterlimit:2;"><path d="M23.828,0l-19.531,0c-2.369,0 -4.297,1.928 -4.297,4.297l-0,19.531c-0,2.369 1.928,4.297 4.297,4.297l19.531,0c2.369,0 4.297,-1.928 4.297,-4.297l0,-19.531c0,-2.369 -1.928,-4.297 -4.297,-4.297Zm-14.453,21.875c0,0.432 -0.349,0.781 -0.781,0.781l-2.344,0c-0.432,0 -0.781,-0.349 -0.781,-0.781l-0,-10.156c-0,-0.432 0.349,-0.781 0.781,-0.781l2.344,-0c0.432,-0 0.781,0.349 0.781,0.781l0,10.156Zm-1.953,-12.5c-1.079,0 -1.953,-0.874 -1.953,-1.953c-0,-1.079 0.874,-1.953 1.953,-1.953c1.079,-0 1.953,0.874 1.953,1.953c0,1.079 -0.874,1.953 -1.953,1.953Zm15.234,12.5c0,0.432 -0.349,0.781 -0.781,0.781l-2.344,0c-0.432,0 -0.781,-0.349 -0.781,-0.781l0,-5.859c0,-1.078 -0.876,-1.953 -1.953,-1.953c-1.077,-0 -1.953,0.875 -1.953,1.953l-0,5.859c-0,0.432 -0.349,0.781 -0.782,0.781l-2.343,0c-0.432,0 -0.782,-0.349 -0.782,-0.781l0,-10.156c0,-0.432 0.35,-0.781 0.782,-0.781l2.343,-0c0.433,-0 0.782,0.349 0.782,0.781l-0,0.422c0.83,-0.746 1.923,-1.204 3.125,-1.204c2.585,0.001 4.687,2.103 4.687,4.688l0,6.25Z" style="fill-rule:nonzero;"/></svg>