<?xml version="1.0" encoding="UTF-8" standalone="no"?><!DOCTYPE svg PUBLIC "-//W3C//DTD SVG 1.1//EN" "http://www.w3.org/Graphics/SVG/1.1/DTD/svg11.dtd"><svg width="100%" height="100%" viewBox="0 0 198 347" version="1.1" xmlns="http://www.w3.org/2000/svg" xmlns:xlink="http://www.w3.org/1999/xlink" xml:space="preserve" xmlns:serif="http://www.serif.com/" style="fill-rule:evenodd;clip-rule:evenodd;stroke-linecap:round;stroke-linejoin:round;stroke-miterlimit:1.5;"><g><path d="M185.976,127.601l-0,143.806c-0,38.795 -31.497,70.292 -70.292,70.292l-40.392,-0c-38.795,-0 -70.292,-31.497 -70.292,-70.292l0,-143.806c0,-38.796 31.497,-70.292 70.292,-70.292l40.392,-0c38.795,-0 70.292,31.496 70.292,70.292Z" style="fill:none;stroke:#231f20;stroke-width:10px;"/><path d="M108.114,115.63l-0,26.755c-0,7.135 -5.792,12.927 -12.927,12.927c-7.134,-0 -12.927,-5.792 -12.927,-12.927l0,-26.755c0,-7.135 5.793,-12.927 12.927,-12.927c7.135,-0 12.927,5.792 12.927,12.927Z" style="fill:none;stroke:#231f20;stroke-width:10px;"/><path d="M5.301,174.552l180.349,-0l-90.463,-0l0,-16.835" style="fill:none;stroke:#231f20;stroke-width:10px;"/><path d="M95.105,101.379l0.082,-43.315c0,0 -2.365,-19.006 8.791,-29.611c14.063,-13.368 32.02,-11.164 48.895,-11.309c29.91,-0.256 40.017,-12.144 40.017,-12.144" style="fill:none;stroke:#231f20;stroke-width:10px;"/></g></svg>